<svg width="1200" height="630" viewBox="0 0 1200 630" xmlns="http://www.w3.org/2000/svg" xmlns:xlink="http://www.w3.org/1999/xlink"><title>exporting-csv-files-from-phoenix</title><defs><rect id="a" width="200" height="166" rx="8"/><mask id="b" x="0" y="0" width="200" height="166" fill="#fff"><use xlink:href="#a"/></mask></defs><g fill="none" fill-rule="evenodd"><g fill="#4A4A4A"><path d="M233.106 244.988l-2.653-2.652-34.79-34.79-2.65-2.652c-1.206-1.205-2.86-1.894-4.547-1.894H88.473C84.41 203 80 206.17 80 213.092V395.89c0 2.892 2.893 5.682 6.338 6.578.172.034.344.103.516.138.517.103 1.068.172 1.62.172H226.49c.55 0 1.102-.07 1.654-.172.172-.035.344-.104.516-.138 3.445-.896 6.338-3.686 6.338-6.58V251.155c0-2.653-.31-4.616-1.894-6.166zm-10.368-.655h-29.07v-29.07l29.07 29.07zM88.473 395.89c-.24 0-.447-.104-.69-.173-.515-.24-.894-.793-.894-1.413v-50.082h141.22v50.082c0 .62-.378 1.172-.894 1.413-.207.07-.448.172-.69.172H88.474zm-1.584-58.557v-124.24c0-.76.102-3.204 1.583-3.204l98.546-.14c-.14.483-.242.966-.242 1.482v39.99h39.99c.448 0 .895-.07 1.343-.206V337.333H86.89z" id="Shape"/><path d="M119.714 361.272c.827-1.068 1.757-1.79 2.825-2.24 1.067-.446 2.17-.653 3.306-.653 1.033 0 2.032.206 2.996.62.965.412 1.826 1.067 2.618 1.962l3.892-3.48c-1.274-1.24-2.755-2.203-4.374-2.823-1.62-.62-3.376-.93-5.27-.93-2.032 0-3.927.378-5.684 1.136-1.756.757-3.306 1.894-4.58 3.375-1.31 1.482-2.308 3.308-3.066 5.547-.724 2.204-1.102 4.787-1.102 7.715s.378 5.477 1.102 7.716c.723 2.24 1.756 4.064 3.065 5.545 1.31 1.48 2.825 2.584 4.58 3.34 1.758.76 3.653 1.138 5.72 1.138 1.894 0 3.65-.31 5.27-.93 1.618-.62 3.1-1.583 4.374-2.823l-3.893-3.445c-.826.896-1.722 1.585-2.72 1.964-1 .378-2.033.62-3.17.62-1.136 0-2.204-.242-3.237-.724-1.034-.482-1.93-1.24-2.72-2.308-.794-1.067-1.448-2.41-1.896-4.064-.447-1.653-.688-3.686-.722-6.028.034-2.41.275-4.443.758-6.13.482-1.69 1.102-3.032 1.928-4.1zM159.326 371.984c-1.068-.792-2.24-1.446-3.514-1.997-1.24-.55-2.41-1.103-3.48-1.688-1.066-.587-1.962-1.24-2.685-2.033-.724-.758-1.068-1.79-1.068-3.03 0-.518.137-1.035.378-1.586.24-.55.585-1.032 1.033-1.48.45-.448.93-.792 1.517-1.102.585-.31 1.17-.482 1.79-.55 1.137-.105 2.067-.105 2.79-.036.724.07 1.31.172 1.757.345.448.172.793.31 1 .482.206.17.447.274.62.378.034-.035.137-.172.275-.482.17-.276.343-.62.55-1.068.207-.414.448-.86.723-1.378.24-.482.483-.93.655-1.343-.896-.586-2.1-1.034-3.582-1.31-1.482-.275-2.928-.413-4.375-.413-1.41 0-2.754.207-4.03.655-1.273.447-2.376 1.067-3.34 1.893-.964.827-1.722 1.86-2.273 3.03-.55 1.173-.86 2.55-.86 4.1 0 1.688.343 3.1 1.066 4.237.724 1.137 1.62 2.1 2.72 2.928 1.104.826 2.275 1.55 3.55 2.17 1.24.62 2.41 1.24 3.513 1.825 1.102.586 1.997 1.31 2.72 2.033.724.757 1.068 1.653 1.068 2.72 0 1.757-.516 3.1-1.515 3.996-1.034.896-2.48 1.344-4.41 1.344-.62 0-1.31-.07-2.032-.173-.724-.137-1.447-.275-2.17-.482-.724-.206-1.412-.412-2.1-.653-.69-.24-1.24-.483-1.69-.724l-.998 4.065c.517.482 1.17.86 1.894 1.205.724.345 1.516.586 2.343.793.826.172 1.62.31 2.41.413.793.102 1.585.102 2.343.102 1.757 0 3.34-.275 4.72-.792 1.377-.55 2.548-1.24 3.478-2.136.93-.895 1.688-1.928 2.204-3.1.517-1.17.792-2.41.792-3.65 0-1.86-.344-3.376-1.067-4.547-.724-1.17-1.62-2.17-2.72-2.963zM182.024 384.247l-8.06-29.967h-6.475l10.814 34.892h7.337l11.3-34.892h-6.408zM142 247.778h-41.333v75.778h113.667v-62H142v-13.778zm-34.444 20.666h27.555v6.89h-27.554v-6.89zm0 13.778h27.555v6.89h-27.554v-6.89zm0 13.778h27.555v6.89h-27.554V296zm27.555 20.667h-27.554v-6.89h27.555v6.89zm72.334 0H142v-6.89h65.444v6.89zm0-13.778H142V296h65.444v6.89zm0-13.78H142v-6.888h65.444v6.89zm0-20.666v6.89H142v-6.89h65.444zm-99.888-6.888v-6.89h27.555v6.89h-27.554z" id="Shape"/></g><g id="Pipe" fill="#4A4A4A"><path id="|" d="M335.182 370.963h11.298V235.84h-11.298z"/><path id="Shape" d="M365.595 342.223l39.365-35.24v-6.913l-39.365-35.24v16.102l25.264 22.594-25.265 22.594z"/></g><g fill="#4A4A4A"><path d="M795.182 370.963h11.298V235.84h-11.298"/><path id="Shape" d="M825.595 342.223l39.365-35.24v-6.913l-39.365-35.24v16.102l25.264 22.594-25.265 22.594z"/></g><path d="M568.135 350.038c-1.128-.203-1.57-.28-2.012-.362-14.288-2.657-23.32-11.303-27.6-24.895-2.668-8.47 2.18-14.71 11.066-15.12 7.275-.338 12.255 3.844 16.66 8.71 5.676 6.274 10.88 12.973 16.456 19.34 8.028 9.168 17.487 15.07 30.43 13.25 11.604-1.635 21.717-6.292 30.517-13.957 1.323-1.152 2.774-2.156 4.167-3.23l-.878-1.034c-7.387 2.293-14.92 3.064-22.62 2.677-11.647-.586-22.746-3.018-32.677-9.413-9.062-5.836-15.745-13.656-18.922-24.1-2.566-8.44 2.686-14.342 11.43-13.122 3.457.482 6.367 2.04 8.98 4.247 2.126 1.795 4.166 3.7 6.335 5.44 10.206 8.202 24.467 8.658 37.422-.246-21.298-.097-35.788-11.812-48.515-26.66-4.98-5.81-9.844-11.725-14.928-17.444-9.837-11.067-20.75-20.817-35.693-24.143-19.088-4.25-37.516-1.472-55.204 6.63-3.527 1.614-6.914 3.492-10.55 6.518 1.8 0 2.782.022 3.762-.003 8.918-.23 15.6 3.733 20.42 11.028 3.51 5.31 5.162 11.313 6.422 17.49 1.87 9.167.902 18.513 1.982 27.722 2.776 23.675 14.876 40.196 37.406 48.656 8.262 3.103 16.736 4.136 26.143 2.02zm-56.94-107.997c-3.56.9-6.404-.538-9.336-3.505 5.02-1.25 9.448-1.736 14.206-1.923-.39 3.09-2.21 4.76-4.87 5.43zm116.66 138.252c-.31-2.28-2.258-3.283-3.79-4.475-6.77-5.27-14.69-7.137-23.088-7.292-5.01-.092-9.97-.466-14.696-2.223-2.165-.805-4.588-1.84-4.533-4.638.055-2.84 2.526-3.643 4.775-4.315 1.84-.55 3.74-.902 5.837-1.392-5.325-3.412-10.526-3.885-17.456-1.098-10.91 4.386-21.664 3.866-32.54-.06-6.14-2.217-11.588-5.696-17.26-8.777l-.156.107c.074-.05.152-.105.147-.102-.14-.428-.394-.44-.72-.2.15.13.297.26.445.39 4.705 7.71 11.06 13.915 18.24 19.217 13.83 10.21 28.933 16.3 46.606 13.597 5.708-.873 11.46-1.55 17.216-2.014 7.218-.583 14.095 1.448 20.972 3.274zm-33.32-110.62c-.382-.276-.75-.97-1.53-.252 6.36 8.6 14.527 14.94 24.362 18.93 15.873 6.442 31.983 7.544 48.46 1.86 12.792-4.412 21.99-.1 26.768 12.32.69-14.417-7.79-24.92-21.3-26.98-7.6-1.158-14.616 1.363-21.735 3.428-19.81 5.744-38.22 2.908-55.025-9.305zm98.737 56.23c2.582.216 5.162.45 7.743.676-5.832-5.123-12.94-5.53-20.13-5.12-10.95.622-18.84 6.937-26.032 14.482-6.337 6.65-12.063 14.11-21.52 16.782.158.284.2.426.243.426 1.272.02 2.547.08 3.816.02 13.735-.62 26.674-3.518 36.967-13.486 3.24-3.14 6.14-6.626 9.27-9.884 2.61-2.717 5.775-4.223 9.642-3.897zm-31.907-17.023c-10.25.895-19.154 5.135-27.517 10.726-6.437 4.303-13.32 6.34-21.057 4.993-1.36-.238-2.73-.415-4.097-.62-.016.19-.03.38-.047.572.492.253.967.55 1.48.752 1.288.51 2.558 1.124 3.896 1.442 14.886 3.54 29.136 1.726 41.984-6.573 8.098-5.23 16.48-6.222 25.567-4.87.918.136 1.832.303 2.754.39.854.08 1.746.93 2.9.01-7.944-5.738-16.5-7.642-25.862-6.824zm-36.634-34.794c5.378.186 10.73-.518 16.355-3.86-1.647.147-2.346.144-3.016.278-7.75 1.544-14.704-.146-20.9-5.044-2.272-1.798-4.583-3.548-6.885-5.31-9.126-6.98-19.59-9.314-31.038-9.116.185.563.196.95.395 1.15 12.455 12.597 26.87 21.274 45.09 21.902zm90.143 64.638c-7.708-7.645-18.052-8.63-27.624-1.958 6.335.285 11.09 2.306 14.948 6.3 1.365 1.413 2.78 2.8 4.307 4.032 5.832 4.704 15.72 4.93 21.495.566-6.785-2.648-6.785-2.648-13.127-8.94zm-76.767 58.545c-6.774-12.61-18.16-15.455-31.31-14.61 3.887 1.08 7.518 2.738 10.85 5.064 3.06 2.137 5.637 4.783 8.176 7.493 5.03 5.37 12.883 8.664 18.086 7.55-2.39-1.506-4.51-3.096-5.802-5.498zm63.03-70.432c.003-.08.005-.16.01-.245l-.02.02.022-.023-.133-.012c.026.024.054.043.08.067l.042.193zm-72.906 53.75l-.267-.15c.012.057.026.113.056.16.017.03.137-.005.21-.01zm-.267-.15c-.008-.04-.015-.083-.026-.124l-.03.038.03-.037-.083-.023c.005.034.017.062.02.097l.09.048z" fill="#FD4F00"/><g transform="translate(930 220)" stroke="#4A4A4A"><use mask="url(#b)" stroke-width="10" xlink:href="#a"/><path d="M5.392 26.5H196.57" stroke-width="5" stroke-linecap="square"/><path id="Triangle-1" fill="#4A4A4A" d="M34.382 14.5l-7 4.412V10.09z"/><path fill="#4A4A4A" d="M12.676 14.5l7 4.412V10.09z"/></g></g></svg>