<svg width="1200" height="630" viewBox="0 0 1200 630" xmlns="http://www.w3.org/2000/svg"><title>lets-encrypt-with-nginx</title><g fill="none" fill-rule="evenodd"><path d="M667.674 295.28h-58.907v-58.906c0-3.36-2.767-6.325-6.325-6.325h-26.884c-3.558 0-6.325 2.964-6.325 6.324v58.907h-58.907c-3.36 0-6.326 2.77-6.326 6.327v27.08c0 3.362 2.965 6.13 6.326 6.13h58.907v58.71c0 3.557 2.767 6.324 6.325 6.324h27.082c3.558 0 6.325-2.766 6.325-6.324v-58.71h58.71c3.558 0 6.325-2.767 6.325-6.325v-26.883c0-3.558-2.965-6.326-6.326-6.326z" fill="#444"/><path d="M299.753 297.706h-40.687v-20.852c0-16.653-13.576-30.204-30.26-30.204-16.683 0-30.26 13.55-30.26 30.204v20.852H157.86v-20.852c0-39.05 31.826-70.817 70.946-70.817s70.947 31.768 70.947 70.817v20.852z" fill="#FFA400"/><path d="M316.165 297.706H141.448c-7.46 0-13.562 6.092-13.562 13.537V440.25c0 7.447 6.102 13.54 13.562 13.54h174.717c7.46 0 13.562-6.093 13.562-13.54V311.244c0-7.446-6.103-13.537-13.562-13.537zm-78.504 84.702v17.48c0 4.88-3.963 8.837-8.852 8.837-4.888 0-8.853-3.957-8.853-8.837V382.41c-5.446-3.084-9.126-8.912-9.126-15.608 0-9.91 8.048-17.944 17.976-17.944 9.928 0 17.977 8.034 17.977 17.944 0 6.696-3.68 12.523-9.122 15.606z" fill="#003A70"/><path d="M123.736 278.47h-42.16c-6.835 0-12.378-5.53-12.378-12.354 0-6.823 5.542-12.355 12.378-12.355h42.16c6.835 0 12.378 5.533 12.378 12.356 0 6.823-5.543 12.355-12.378 12.355zM153.434 212.274c-2.765 0-5.55-.92-7.854-2.812l-33.35-27.37c-5.28-4.335-6.04-12.12-1.697-17.39 4.34-5.27 12.14-6.033 17.422-1.697l33.35 27.37c5.28 4.335 6.04 12.12 1.697 17.39a12.36 12.36 0 0 1-9.568 4.51zM228.806 183.18c-6.836 0-12.378-5.533-12.378-12.357V128.41c0-6.824 5.542-12.356 12.378-12.356 6.835 0 12.377 5.532 12.377 12.356v42.413c0 6.824-5.542 12.356-12.377 12.356zM304.178 212.274c-3.577 0-7.12-1.537-9.568-4.51-4.342-5.27-3.582-13.055 1.698-17.39l33.35-27.37c5.285-4.336 13.083-3.573 17.42 1.696 4.343 5.27 3.583 13.056-1.697 17.39l-33.348 27.37a12.346 12.346 0 0 1-7.854 2.814zM376.037 278.47h-42.56c-6.836 0-12.38-5.53-12.38-12.354 0-6.823 5.543-12.355 12.38-12.355h42.56c6.835 0 12.377 5.533 12.377 12.356 0 6.823-5.542 12.355-12.377 12.355z" fill="#FFA400"/><g fill="#090"><path d="M831.197 355.347a8.577 8.577 0 0 1-6.064-2.5l-50.74-50.55v44.51c0 4.717-3.84 8.54-8.576 8.54-4.732 0-8.574-3.823-8.574-8.54v-65.133a8.543 8.543 0 0 1 5.296-7.892 8.584 8.584 0 0 1 9.34 1.852l50.743 50.55v-44.51c0-4.718 3.838-8.54 8.574-8.54s8.574 3.822 8.574 8.54v65.132a8.546 8.546 0 0 1-5.294 7.892c-1.06.437-2.17.65-3.28.65M870.902 273.215l-2.356 4.38-18.222 32.99-2.356 4.164 2.356 4.16 18.222 31.924 2.462 4.377h47.697l2.356-4.803 13.613-27.332 6.108-12.384h-13.824l-34.83.106c-4.532-.06-8.7 4.028-8.7 8.542 0 4.513 4.168 8.606 8.7 8.54l21.005-.105-5.143 10.355h-27.01L867.58 314.64l13.505-24.342h28.73l6.698 13.693h17.258l-10.878-25.968-2.36-4.807h-49.63M957.765 273.11c-4.493.054-8.526 4.174-8.468 8.646v22.26h17.148v-22.26c.055-4.543-4.122-8.705-8.68-8.647M985.25 355.51a8.59 8.59 0 0 1-3.278-.648 8.543 8.543 0 0 1-5.292-7.892v-65.132c0-4.718 3.837-8.54 8.574-8.54 4.736 0 8.574 3.822 8.574 8.54v44.51l50.742-50.55a8.59 8.59 0 0 1 9.342-1.852 8.543 8.543 0 0 1 5.292 7.892v65.132c0 4.718-3.838 8.54-8.574 8.54-4.737 0-8.574-3.822-8.574-8.54v-44.51l-50.742 50.55a8.58 8.58 0 0 1-6.064 2.5M1122.718 314.34l26.672-26.475a8.52 8.52 0 0 0 .02-12.08c-3.34-3.342-8.765-3.35-12.123-.02l-26.714 26.518-26.713-26.52c-3.358-3.33-8.784-3.32-12.124.02a8.522 8.522 0 0 0 .017 12.082l26.673 26.474-26.594 26.398a8.512 8.512 0 0 0-.02 12.078 8.55 8.55 0 0 0 6.073 2.514c2.188 0 4.377-.83 6.05-2.494l26.638-26.44 26.635 26.44a8.56 8.56 0 0 0 6.053 2.494 8.554 8.554 0 0 0 6.075-2.514 8.518 8.518 0 0 0-.02-12.078l-26.597-26.4M957.765 355.27c-4.493-.056-8.526-4.176-8.468-8.648v-35.754h17.148v35.754c.055 4.54-4.122 8.7-8.68 8.647"/></g></g></svg>