<?xml version="1.0" encoding="UTF-8" standalone="no"?>
<svg width="1200px" height="630px" viewBox="0 0 1200 630" version="1.1" xmlns="http://www.w3.org/2000/svg" xmlns:xlink="http://www.w3.org/1999/xlink" xmlns:sketch="http://www.bohemiancoding.com/sketch/ns">
    <!-- Generator: Sketch 3.4.2 (15855) - http://www.bohemiancoding.com/sketch -->
    <title>webpack-and-phoenix-on-elixir</title>
    <desc>Created with Sketch.</desc>
    <defs>
        <radialGradient cx="50%" cy="50%" fx="50%" fy="50%" r="50%" id="radialGradient-1">
            <stop stop-color="#93B4E7" offset="0%"></stop>
            <stop stop-color="#B9D1F8" offset="59.2733578%"></stop>
            <stop stop-color="#9CB6E0" offset="100%"></stop>
        </radialGradient>
    </defs>
    <g id="Page-1" stroke="none" stroke-width="1" fill="none" fill-rule="evenodd" sketch:type="MSPage">
        <g id="webpack-and-phoenix-on-elixir" sketch:type="MSArtboardGroup">
            <path d="M893.326625,368.644052 C891.820904,368.378498 891.230897,368.277771 890.640889,368.170502 C871.568431,364.694748 859.511988,353.384484 853.798794,335.604112 C850.237391,324.521466 856.708785,316.359919 868.570338,315.82227 C878.282769,315.381423 884.930364,320.852106 890.809081,327.217563 C898.387073,335.424895 905.333677,344.188191 912.776848,352.518489 C923.493092,364.510299 936.119519,372.232308 953.395258,369.848858 C968.886292,367.711342 982.385716,361.619288 994.132471,351.592319 C995.898489,350.08533 997.835368,348.771948 999.694826,347.368303 C999.303713,346.916991 998.913934,346.46568 998.522821,346.014368 C988.662221,349.015264 978.605397,350.023847 968.329656,349.517593 C952.781223,348.751018 937.965629,345.569597 924.709149,337.203979 C912.612661,329.569617 903.691801,319.339885 899.450956,305.676259 C896.025709,294.638091 903.036386,286.916082 914.708389,288.512025 C919.322994,289.142553 923.207433,291.179343 926.694083,294.067738 C929.533327,296.417175 932.256439,298.907892 935.151747,301.186689 C948.775313,311.914826 967.81173,312.511342 985.104823,300.863576 C956.675006,300.736686 937.332906,285.41171 920.344161,265.989609 C913.695231,258.38795 907.203814,250.650244 900.417393,243.168935 C887.28639,228.69164 872.719079,215.937179 852.772288,211.586273 C827.292508,206.027944 802.693735,209.660676 779.082757,220.257998 C774.374711,222.37066 769.853546,224.827366 765,228.785827 C767.402745,228.785827 768.713576,228.814606 770.021738,228.781903 C781.926006,228.481028 790.846866,233.665226 797.280884,243.208179 C801.963568,250.153147 804.170089,258.007279 805.85201,266.08772 C808.348196,278.07953 807.056053,290.305499 808.4977,302.352251 C812.203267,333.322699 828.355055,354.934642 858.429418,366.00159 C869.458019,370.060779 880.76961,371.412098 893.326625,368.644052 L893.326625,368.644052 L893.326625,368.644052 Z M817.321115,227.367793 C812.569019,228.542511 808.771346,226.6627 804.857541,222.781419 C811.559865,221.144924 817.470619,220.510471 823.821876,220.265847 C823.302616,224.306722 820.870504,226.491332 817.321115,227.367793 L817.321115,227.367793 Z M973.043041,408.220818 C972.629235,405.239545 970.030265,403.926162 967.986597,402.366848 C958.946935,395.47159 948.374855,393.030582 937.166048,392.827819 C930.477072,392.707469 923.857509,392.218221 917.548967,389.919802 C914.657664,388.866741 911.423302,387.514114 911.496719,383.852603 C911.570136,380.137457 914.868572,379.087013 917.870668,378.207936 C920.328143,377.488454 922.864374,377.029293 925.662238,376.3883 C918.555451,371.924892 911.612852,371.306137 902.362282,374.951951 C887.80031,380.689496 873.443907,380.009258 858.92732,374.872154 C850.731289,371.973294 843.457645,367.422241 835.884992,363.391831 L835.678089,363.531803 C835.776869,363.465087 835.880988,363.394447 835.874314,363.398372 C835.687433,362.838483 835.348379,362.824094 834.913215,363.136742 C835.112109,363.306801 835.309668,363.476861 835.507227,363.64692 C841.787737,373.734064 850.272098,381.849825 859.856382,388.785636 C878.314806,402.141846 898.476509,410.10717 922.067464,406.572549 C929.686836,405.430535 937.363607,404.544917 945.048388,403.937936 C954.683397,403.175284 963.863219,405.832137 973.043041,408.220818 L973.043041,408.220818 Z M928.56689,263.51459 C928.056974,263.152232 927.567081,262.243068 926.525891,263.183628 C935.012922,274.433716 945.916046,282.727387 959.04438,287.948213 C980.232589,296.374006 1001.73716,297.815587 1023.73162,290.380063 C1040.80713,284.608506 1053.0865,290.24794 1059.46312,306.495161 C1060.3855,287.636873 1049.06457,273.896067 1031.03197,271.202586 C1020.88704,269.687749 1011.52034,272.985595 1002.01748,275.686924 C975.572598,283.200937 950.997852,279.491024 928.56689,263.51459 L928.56689,263.51459 Z M1060.36682,337.06924 C1063.81342,337.353108 1067.25736,337.659215 1070.70263,337.954857 C1062.91773,331.253205 1053.42956,330.722097 1043.83059,331.25713 C1029.21389,332.070799 1018.68319,340.331765 1009.08289,350.201756 C1000.62389,358.900952 992.980488,368.65975 980.356731,372.155127 C980.567639,372.526641 980.622368,372.712399 980.681102,372.712399 C982.379042,372.737253 984.080986,372.815742 985.774922,372.73987 C1004.1092,371.9262 1021.38094,368.13649 1035.12064,355.096853 C1039.44691,350.99057 1043.31934,346.429052 1047.49611,342.167099 C1050.98009,338.612857 1055.20492,336.642783 1060.36682,337.06924 L1060.36682,337.06924 Z M1017.77549,314.801913 C1004.09319,315.974015 992.207605,321.520571 981.044183,328.834436 C972.451699,334.463405 963.262533,337.126798 952.936067,335.366029 C951.119325,335.055997 949.289234,334.824455 947.465817,334.556284 C947.444459,334.806141 947.424436,335.054689 947.403078,335.304546 C948.059829,335.635508 948.693887,336.02272 949.377334,336.288274 C951.097967,336.955431 952.793237,337.758635 954.579278,338.174626 C974.449982,342.804168 993.471716,340.432493 1010.62198,329.576157 C1021.43166,322.733225 1032.62178,321.436849 1044.75031,323.204159 C1045.97571,323.383376 1047.19577,323.601837 1048.42651,323.714338 C1049.56648,323.820298 1050.75717,324.930917 1052.29626,323.728728 C1041.69348,316.222564 1030.27243,313.731846 1017.77549,314.801913 L1017.77549,314.801913 Z M968.874278,269.287455 C976.051812,269.530771 983.19731,268.609833 990.704554,264.239305 C988.506042,264.430294 987.572976,264.42637 986.678621,264.601662 C976.336137,266.621445 967.052196,264.410672 958.782747,258.003354 C955.748614,255.651301 952.663756,253.362039 949.590912,251.058387 C937.408993,241.927501 923.439698,238.872971 908.159573,239.131984 C908.406521,239.868473 908.421205,240.373419 908.686842,240.635049 C925.312505,257.11512 944.55449,268.465937 968.874278,269.287455 L968.874278,269.287455 Z M1089.2011,353.843645 C1078.91201,343.842839 1065.10423,342.554312 1052.32696,351.282288 C1060.78463,351.65511 1067.13321,354.298881 1072.28176,359.523632 C1074.10385,361.372047 1075.99267,363.186451 1078.031,364.798092 C1085.81589,370.951629 1099.01364,371.247271 1106.72378,365.538505 C1097.66677,362.074524 1097.66677,362.074524 1089.2011,353.843645 L1089.2011,353.843645 Z M986.728011,430.429278 C977.685679,413.934817 962.488315,410.21313 944.932255,411.319825 C950.122185,412.730011 954.969057,414.900231 959.416805,417.942988 C963.502807,420.738504 966.941403,424.199869 970.330609,427.744955 C977.046282,434.768411 987.527591,439.078765 994.47286,437.621486 C991.283883,435.651413 988.451313,433.571454 986.728011,430.429278 L986.728011,430.429278 Z M1070.86548,338.294976 C1070.86815,338.190324 1070.87082,338.084364 1070.87749,337.974479 C1070.87749,337.973171 1070.86414,337.987561 1070.8508,338.001951 L1070.88016,337.970555 C1070.82143,337.965322 1070.76136,337.96009 1070.70263,337.954857 C1070.73733,337.986253 1070.77471,338.011108 1070.80941,338.042503 C1070.8281,338.126225 1070.84679,338.211255 1070.86548,338.294976 L1070.86548,338.294976 Z M973.544948,408.609339 C973.426145,408.542623 973.307343,408.477216 973.188541,408.411808 C973.204559,408.486373 973.223247,408.559629 973.263293,408.619804 C973.28732,408.659048 973.447503,408.614571 973.544948,408.609339 L973.544948,408.609339 Z M973.188541,408.411808 C973.177862,408.358174 973.168518,408.303232 973.153834,408.249598 C973.153834,408.249598 973.133811,408.274452 973.112454,408.299307 L973.153834,408.250906 C973.117793,408.240441 973.080417,408.231283 973.043041,408.220818 C973.049715,408.265295 973.065734,408.301924 973.071073,408.347709 C973.111119,408.368639 973.14983,408.390878 973.188541,408.411808 L973.188541,408.411808 Z" id="Phoenix" fill="#FD4F00" sketch:type="MSShapeGroup"></path>
            <g id="Webpack" sketch:type="MSLayerGroup" transform="translate(116.000000, 148.000000)">
                <path d="M146.871539,0.512087133 L0.341742784,83.4184818 L0.341742784,249.231272 L146.871539,332.138178 L293.401857,249.231272 L293.401857,83.4184818 L146.871539,0.512087133 L146.871539,0.512087133 Z" id="Shape" fill="url(#radialGradient-1)" sketch:type="MSShapeGroup"></path>
                <path d="M146.873106,84.6095966 L74.208871,125.723024 L74.208871,207.950391 L146.873106,249.06433 L219.538387,207.950391 L219.538387,125.723024 L146.873106,84.6095966 L146.873106,84.6095966 Z" id="Shape" fill="#6F95DB" sketch:type="MSShapeGroup"></path>
                <g id="Group" fill-opacity="0.1" fill="#FFFFFF" sketch:type="MSShapeGroup">
                    <path d="M146.834438,0 L0,83.4702026 L146.834438,161.819533 L293.668876,83.9822897 L146.834438,0 L146.834438,0 Z" id="Shape"></path>
                </g>
                <g id="Group" transform="translate(0.000000, 173.881514)" fill-opacity="0.1" fill="#FFFFFF" sketch:type="MSShapeGroup">
                    <path d="M146.834438,0 L0,76.3009828 L146.834438,159.259098 L293.146334,75.7888956 L146.834438,0 L146.834438,0 Z" id="Shape"></path>
                </g>
            </g>
            <path d="M678.674419,295.281395 L619.767442,295.281395 L619.767442,236.374419 C619.767442,233.013953 617,230.048837 613.44186,230.048837 L586.55814,230.048837 C583,230.048837 580.232558,233.013953 580.232558,236.374419 L580.232558,295.281395 L521.325581,295.281395 C517.965116,295.281395 515,298.048837 515,301.606977 L515,328.688372 C515,332.048837 517.965116,334.816279 521.325581,334.816279 L580.232558,334.816279 L580.232558,393.525581 C580.232558,397.083721 583,399.851163 586.55814,399.851163 L613.639535,399.851163 C617.197674,399.851163 619.965116,397.083721 619.965116,393.525581 L619.965116,334.816279 L678.674419,334.816279 C682.232558,334.816279 685,332.048837 685,328.490698 L685,301.606977 C685,298.048837 682.034884,295.281395 678.674419,295.281395 L678.674419,295.281395 Z" id="Plus" fill="#444444" sketch:type="MSShapeGroup"></path>
        </g>
    </g>
</svg>