<?xml version="1.0" encoding="UTF-8" standalone="no"?>
<svg width="1200px" height="630px" viewBox="0 0 1200 630" version="1.1" xmlns="http://www.w3.org/2000/svg" xmlns:xlink="http://www.w3.org/1999/xlink">
    <!-- Generator: Sketch 3.7.2 (28276) - http://www.bohemiancoding.com/sketch -->
    <title>lets-encrypt-with-nginx</title>
    <desc>Created with Sketch.</desc>
    <defs></defs>
    <g id="Page-1" stroke="none" stroke-width="1" fill="none" fill-rule="evenodd">
        <g id="lets-encrypt-with-nginx">
            <path d="M667.674419,295.281395 L608.767442,295.281395 L608.767442,236.374419 C608.767442,233.013953 606,230.048837 602.44186,230.048837 L575.55814,230.048837 C572,230.048837 569.232558,233.013953 569.232558,236.374419 L569.232558,295.281395 L510.325581,295.281395 C506.965116,295.281395 504,298.048837 504,301.606977 L504,328.688372 C504,332.048837 506.965116,334.816279 510.325581,334.816279 L569.232558,334.816279 L569.232558,393.525581 C569.232558,397.083721 572,399.851163 575.55814,399.851163 L602.639535,399.851163 C606.197674,399.851163 608.965116,397.083721 608.965116,393.525581 L608.965116,334.816279 L667.674419,334.816279 C671.232558,334.816279 674,332.048837 674,328.490698 L674,301.606977 C674,298.048837 671.034884,295.281395 667.674419,295.281395 L667.674419,295.281395 L667.674419,295.281395 Z" id="Plus" fill="#444444"></path>
            <g id="le-logo-lockonly" transform="translate(69.000000, 116.000000)">
                <g id="Layer_1">
                    <g id="Group">
                        <path d="M230.753103,181.705633 L190.065517,181.705633 L190.065517,160.85358 C190.065517,144.200713 176.489655,130.649735 159.806207,130.649735 C143.122759,130.649735 129.546897,144.200713 129.546897,160.85358 L129.546897,181.705633 L88.8593103,181.705633 L88.8593103,160.85358 C88.8593103,121.805287 120.686207,90.0367291 159.806207,90.0367291 C198.926207,90.0367291 230.753103,121.805287 230.753103,160.85358 L230.753103,181.705633 L230.753103,181.705633 Z" id="Shape" fill="#FFA400"></path>
                        <path d="M247.164828,181.705633 L72.4475862,181.705633 C64.9882759,181.705633 58.8855172,187.797894 58.8855172,195.242843 L58.8855172,324.251454 C58.8855172,331.697092 64.9882759,337.789352 72.4475862,337.789352 L247.164828,337.789352 C254.624138,337.789352 260.726897,331.697092 260.726897,324.251454 L260.726897,195.242843 C260.726897,187.797206 254.624138,181.705633 247.164828,181.705633 L247.164828,181.705633 Z M168.661379,266.40802 L168.661379,283.888334 C168.661379,288.766961 164.696552,292.72521 159.808276,292.72521 C154.92,292.72521 150.955172,288.76765 150.955172,283.888334 L150.955172,266.410774 C145.508966,263.326094 141.828966,257.498175 141.828966,250.802196 C141.828966,240.892118 149.877931,232.857906 159.806207,232.857906 C169.734483,232.857906 177.783448,240.892118 177.783448,250.802196 C177.783448,257.498175 174.104138,263.325405 168.661379,266.40802 L168.661379,266.40802 Z" id="Shape" fill="#003A70"></path>
                        <path d="M54.7358621,162.471299 L12.5758621,162.471299 C5.74068966,162.471299 0.197931034,156.939389 0.197931034,150.116057 C0.197931034,143.292725 5.74,137.760815 12.5758621,137.760815 L54.7358621,137.760815 C61.5710345,137.760815 67.1137931,143.292725 67.1137931,150.116057 C67.1137931,156.939389 61.5710345,162.471299 54.7358621,162.471299 L54.7358621,162.471299 Z" id="Shape" fill="#FFA400"></path>
                        <path d="M84.4344828,96.2742403 C81.6689655,96.2742403 78.8841379,95.3531731 76.58,93.4621629 L43.2310345,66.0910468 C37.9510345,61.7569369 37.1910345,53.9712342 41.5331034,48.7009124 C45.8737931,43.4319674 53.6717241,42.6692301 58.9551724,47.0047169 L92.3041379,74.375833 C97.5841379,78.709943 98.3441379,86.4956456 94.002069,91.7659674 C91.5558621,94.7363747 88.0089655,96.2742403 84.4344828,96.2742403 L84.4344828,96.2742403 Z" id="Shape" fill="#FFA400"></path>
                        <path d="M159.805517,67.1787047 C152.970345,67.1787047 147.427586,61.6467943 147.427586,54.8234623 L147.427586,12.4096253 C147.427586,5.58629328 152.969655,0.0543828921 159.805517,0.0543828921 C166.64069,0.0543828921 172.183448,5.58629328 172.183448,12.4096253 L172.183448,54.8234623 C172.182759,61.6467943 166.64069,67.1787047 159.805517,67.1787047 L159.805517,67.1787047 Z" id="Shape" fill="#FFA400"></path>
                        <path d="M235.177931,96.2742403 C231.601379,96.2742403 228.056552,94.7370631 225.610345,91.765279 C221.268276,86.4949572 222.028276,78.7092546 227.308276,74.3751446 L260.657241,47.0040285 C265.942759,42.6678534 273.74069,43.431279 278.07931,48.700224 C282.421379,53.9705458 281.661379,61.7562485 276.381379,66.0903585 L243.032414,93.4614745 C240.727586,95.3524847 237.943448,96.2742403 235.177931,96.2742403 L235.177931,96.2742403 Z" id="Shape" fill="#FFA400"></path>
                        <path d="M307.036552,162.471299 L264.475862,162.471299 C257.64069,162.471299 252.097931,156.939389 252.097931,150.116057 C252.097931,143.292725 257.64,137.760815 264.475862,137.760815 L307.036552,137.760815 C313.871724,137.760815 319.414483,143.292725 319.414483,150.116057 C319.413793,156.939389 313.871724,162.471299 307.036552,162.471299 L307.036552,162.471299 Z" id="Shape" fill="#FFA400"></path>
                    </g>
                </g>
            </g>
            <g id="nginx" transform="translate(757.000000, 273.000000)" fill="#009900">
                <g id="Group">
                    <path d="M74.1969801,82.3472234 C71.9677031,82.3472234 69.7727229,81.4828561 68.1333469,79.8463658 L17.391575,29.296247 L17.391575,73.8060437 C17.391575,78.5241912 13.5537891,82.3472234 8.81743317,82.3472234 C4.08450685,82.3472234 0.243291276,78.5241912 0.243291276,73.8060437 L0.243291276,8.6744223 C0.243291276,5.21695269 2.33538191,2.10454672 5.53868131,0.782372079 C8.73855105,-0.543219041 12.4288618,0.187905958 14.8810664,2.63409988 L65.6228382,53.1842189 L65.6228382,8.6744223 C65.6228382,3.95627453 69.4606241,0.133242406 74.1969801,0.133242406 C78.933336,0.133242406 82.7711221,3.95627453 82.7711221,8.6744223 L82.7711221,73.8060437 C82.7711221,77.2600966 80.6790316,80.3759196 77.475732,81.6980943 C76.415968,82.1354021 75.3047593,82.3472234 74.1969801,82.3472234" id="Shape"></path>
                    <path d="M113.902117,0.215237733 L111.545942,4.59515479 L93.3241758,37.584608 L90.9680016,41.7492873 L93.3241758,45.9105502 L111.545942,77.8340639 L114.008436,82.2105647 L161.704673,82.2105647 L164.060846,77.407005 L177.673154,50.0752295 L183.781372,37.6905187 L169.956426,37.6905187 L135.124833,37.7964293 C130.594256,37.7349328 126.427223,41.8244498 126.427223,46.3376092 C126.427223,50.8507686 130.594256,54.9437021 135.124833,54.8787891 L156.13148,54.7728784 L150.986995,65.128205 L123.978448,65.128205 L110.578779,41.6399603 L124.084768,17.2975975 L152.815002,17.2975975 L159.513122,30.9908171 L176.771155,30.9908171 L165.892284,5.02221378 L163.53268,0.215237733 L113.902117,0.215237733" id="Shape"></path>
                    <path d="M200.765033,0.109327103 C196.272183,0.163990655 192.238907,4.28425584 192.297211,8.75641761 L192.297211,31.0147325 L209.445494,31.0147325 L209.445494,8.75641761 C209.500368,4.21250993 205.323048,0.0512470793 200.765033,0.109327103" id="Shape"></path>
                    <path d="M228.250303,82.5112145 C227.145954,82.5112145 226.031314,82.2993932 224.971551,81.8620846 C221.768251,80.53991 219.679591,77.4240877 219.679591,73.9700344 L219.679591,8.83841293 C219.679591,4.12026519 223.517376,0.29723306 228.253733,0.29723306 C232.990088,0.29723306 236.827874,4.12026519 236.827874,8.83841293 L236.827874,53.3482096 L287.569647,2.79809053 C290.014991,0.358729555 293.698442,-0.379228388 296.912031,0.946362734 C300.11533,2.26853739 302.203991,5.38435982 302.203991,8.83841293 L302.203991,73.9700344 C302.203991,78.6881823 298.366205,82.5112145 293.629849,82.5112145 C288.893494,82.5112145 285.055708,78.6881823 285.055708,73.9700344 L285.055708,29.4602376 L234.313935,80.0103569 C232.677989,81.6434303 230.483009,82.5112145 228.250303,82.5112145" id="Shape"></path>
                    <path d="M365.717804,41.3393108 L392.390246,14.8650695 C395.74445,11.5374258 395.754739,6.12915069 392.410823,2.78442464 C389.070337,-0.556884929 383.64462,-0.563717874 380.286988,2.76392582 L353.573391,29.2825812 L326.859794,2.76392582 C323.502159,-0.567134346 318.076442,-0.556884929 314.735957,2.78442464 C311.392041,6.12915069 311.402331,11.5374258 314.753105,14.8650695 L341.425547,41.3393108 L314.831988,67.7383896 C311.474354,71.0694497 311.467494,76.4743084 314.81141,79.8156182 C316.485082,81.4931058 318.683493,82.3301416 320.885332,82.3301416 C323.073453,82.3301416 325.261574,81.4999387 326.935246,79.8361169 L353.573391,53.3960403 L380.208105,79.8361169 C381.885207,81.4999387 384.069898,82.3301416 386.261449,82.3301416 C388.463288,82.3301416 390.65827,81.4931058 392.335372,79.8156182 C395.675857,76.4743084 395.668997,71.0694497 392.314793,67.7383896 L365.717804,41.3393108" id="Shape"></path>
                    <path d="M200.765033,82.2686447 C196.272183,82.2139815 192.238907,78.0937163 192.297211,73.6215543 L192.297211,37.8681751 L209.445494,37.8681751 L209.445494,73.6215543 C209.500368,78.1620453 205.323048,82.3233087 200.765033,82.2686447" id="Shape"></path>
                </g>
            </g>
        </g>
    </g>
</svg>